<?xml version="1.0" encoding="UTF-8" standalone="no"?>
<svg xmlns:rdf="http://www.w3.org/1999/02/22-rdf-syntax-ns#"
	xmlns="http://www.w3.org/2000/svg"
	xml:space="preserve" height="48" viewBox="0 0 48 48" width="48" version="1.1"
	y="0px" x="0px">
<g stroke-miterlimit="10" stroke="#000">
	<path d="m30.598 23.88c-5.655-4.583 4.009-12.534-4.432-17.135-8.44-4.6009-22.375 4.705-22.055 19.515 0.3199 14.81 12.267 16.409 18.383 16.363 6.8333-0.05128 13.768-2.39 15.095-7.1134 1.7125-6.0878 1.5808-9.4846-1.816-11.395-1.863-1.0538-2.1641 2.2018-5.1751-0.23523z" stroke-width="1.5" fill="#a7a9ac"/>
	<g>
		<ellipse rx="4.0554" ry="4.0178" cy="34.917" cx="24.012" fill="#fbb040"/>
		<ellipse rx="4.0554" ry="4.0178" cy="30.325" cx="13.69" fill="#8dc63f"/>
		<ellipse rx="4.0554" ry="4.0178" cy="19.862" cx="12.862" fill="#c49a6c"/>
		<ellipse rx="4.0554" ry="4.0178" cy="12.946" cx="21.443" fill="#fff200"/>
	</g>
</g>
	<g transform="matrix(.94093 0 0 .94093 3.3112 -6.663)">
		<rect transform="matrix(.8987 .4385 -.4385 .8987 14.18 -14.799)" height="16.95" width="4.24" y="14.82" x="37.01" fill="#333"/>
		<path fill="#333" d="m32.23 32.59h-0.18c-1.57 0-3.07 0.87-3.81 2.38-0.46 0.94-0.64 1.98-1.15 2.91-0.4 0.72-0.92 1.36-1.6 1.83-0.96 0.67-2.17 1.08-3.32 1.32-0.24 0.05-0.46 0.06-0.71 0.06 2.95 1.2 5.32 1.66 7.22 1.66 5.71 0 7.16-4.07 7.16-4.07 0.61-1.25 0.54-2.65-0.06-3.8l0.02 0.01 0.74-1.52-3.81-1.86-0.5 1.08z"/>
		<path fill="#fff" d="m45.19 15.71-3.81-1.86c-0.14-0.07-0.29-0.1-0.44-0.1-0.11 0-0.22 0.02-0.32 0.05-0.25 0.09-0.46 0.27-0.57 0.51l-7.44 15.24c-0.12 0.24-0.13 0.51-0.05 0.76 0.03 0.08 0.08 0.14 0.12 0.21-0.34 0.03-0.66 0.22-0.82 0.55l-0.26 0.54c-1.83 0.15-3.44 1.24-4.25 2.92-0.24 0.49-0.41 0.99-0.57 1.47-0.17 0.51-0.33 0.98-0.56 1.4-0.35 0.64-0.78 1.14-1.29 1.49-0.73 0.5-1.75 0.91-2.95 1.16-0.15 0.03-0.29 0.04-0.52 0.04-0.47 0.01-0.87 0.35-0.96 0.82s0.17 0.93 0.6 1.11c2.81 1.15 5.37 1.73 7.6 1.73 6.02 0 7.85-4.09 8.08-4.67 0.63-1.32 0.67-2.8 0.14-4.16l0.55-1.12c0.12-0.24 0.13-0.51 0.05-0.76-0.03-0.08-0.08-0.14-0.12-0.21 0.08-0.01 0.17-0.01 0.25-0.04 0.25-0.09 0.46-0.27 0.57-0.51l7.44-15.24c0.23-0.49 0.03-1.09-0.47-1.33zm-9.33 22.97s-1.45 4.07-7.16 4.07c-1.9 0-4.27-0.45-7.22-1.65 0.25-0.01 0.46-0.01 0.71-0.06 1.14-0.24 2.35-0.65 3.31-1.32 0.68-0.47 1.2-1.11 1.6-1.83 0.51-0.93 0.69-1.98 1.15-2.91 0.73-1.51 2.24-2.38 3.81-2.38h0.18l0.53-1.08 3.81 1.86-0.74 1.52-0.02-0.01c0.58 1.14 0.65 2.54 0.04 3.79zm1.45-6.84-3.81-1.86 7.44-15.23 3.81 1.86-7.44 15.23z"/>
	</g>
</svg>
